<?xml version="1.0" standalone="no"?>
<!DOCTYPE svg PUBLIC "-//W3C//DTD SVG 20010904//EN"
 "http://www.w3.org/TR/2001/REC-SVG-20010904/DTD/svg10.dtd">
<svg version="1.0" xmlns="http://www.w3.org/2000/svg"
 width="1024.000000pt" height="1024.000000pt" viewBox="0 0 1024.000000 1024.000000"
 preserveAspectRatio="xMidYMid meet">

<g transform="translate(0.000000,1024.000000) scale(0.100000,-0.100000)"
fill="#000000" stroke="none">
<path d="M4775 8613 c-160 -15 -488 -86 -564 -122 -57 -26 -65 -111 -12 -111
9 0 80 16 158 35 78 19 149 35 158 35 8 0 19 -10 24 -22 12 -30 54 -68 113
-101 89 -51 98 -82 76 -247 -17 -128 -2 -210 49 -262 39 -40 84 -55 128 -44
19 5 34 23 57 71 38 81 76 114 168 151 55 21 80 38 107 70 35 44 52 50 173 69
35 5 36 6 48 73 7 38 29 100 52 145 22 43 40 90 40 103 0 32 -25 81 -48 93
-32 17 -175 49 -267 60 -84 10 -369 12 -460 4z"/>
<path d="M8055 8477 c-54 -18 -104 -45 -140 -75 -76 -62 -346 -334 -482 -485
l-62 -69 -103 32 c-255 78 -426 138 -595 206 -100 41 -194 74 -210 74 -46 0
-91 -36 -140 -112 -25 -40 -79 -106 -120 -147 -111 -111 -120 -169 -37 -248
50 -49 58 -51 81 -24 24 28 53 10 83 -52 24 -50 27 -52 63 -51 21 1 46 8 54
17 27 27 31 87 10 154 l-19 62 22 35 c12 20 27 36 34 36 6 0 37 -19 68 -42 32
-24 152 -103 267 -177 l210 -134 -106 -131 c-194 -238 -346 -421 -360 -433 -8
-6 -51 -14 -96 -18 -122 -9 -247 -25 -290 -36 -61 -16 -48 -43 53 -112 47 -32
111 -78 143 -102 52 -41 57 -48 57 -85 0 -42 18 -61 71 -74 20 -4 51 -39 115
-127 119 -163 135 -182 156 -174 9 4 20 14 24 23 4 9 10 115 13 234 l6 218 70
62 c39 35 137 126 218 203 81 77 175 165 209 195 l61 55 16 -25 c9 -13 46 -65
82 -115 36 -49 144 -198 240 -330 96 -132 193 -259 216 -282 56 -56 92 -58
139 -8 41 43 55 91 43 142 -9 42 -99 290 -204 563 -37 96 -82 216 -101 265
-19 50 -44 112 -55 138 l-20 48 62 67 c35 37 125 132 200 212 248 261 302 344
303 467 1 80 -15 113 -72 146 -41 24 -126 30 -177 14z"/>
<path d="M4031 8366 c-6 -7 -15 -35 -20 -61 -11 -60 5 -79 75 -88 73 -8 101
-22 128 -64 22 -33 25 -45 18 -81 -6 -40 -11 -46 -67 -75 -74 -39 -79 -62 -14
-62 40 0 52 -5 92 -42 35 -33 55 -43 79 -43 49 0 57 10 60 74 l3 59 51 2 c28
1 56 5 62 9 24 14 12 63 -25 109 -21 26 -56 77 -79 114 -48 80 -71 94 -224
135 -123 32 -124 32 -139 14z"/>
<path d="M3824 8323 c-38 -41 -41 -55 -19 -96 14 -27 13 -28 -13 -38 -15 -5
-34 -20 -43 -31 -18 -23 -84 -35 -94 -18 -4 6 2 10 12 10 10 0 25 13 35 29 15
28 15 30 -2 46 -14 13 -28 15 -59 10 -40 -7 -118 -59 -114 -76 6 -20 -46 -20
-86 1 -86 43 -87 43 -133 2 -40 -36 -177 -191 -249 -282 -160 -201 -313 -501
-398 -779 -65 -210 -67 -231 -31 -336 17 -50 39 -129 49 -178 19 -89 55 -158
94 -178 29 -16 33 -3 15 59 -49 177 -55 201 -48 197 26 -16 154 -318 170 -400
17 -89 18 -91 58 -130 38 -37 114 -67 205 -80 34 -5 53 -15 76 -41 35 -38 70
-58 119 -69 34 -7 44 -18 95 -104 44 -75 90 -98 159 -82 60 13 73 3 84 -67 8
-50 0 -70 -59 -161 -41 -64 -42 -66 -45 -169 l-4 -103 50 -87 c27 -48 58 -109
68 -135 27 -69 72 -118 155 -167 l71 -44 62 13 c111 22 363 112 494 176 230
112 477 267 477 299 0 30 -51 54 -138 65 -44 5 -86 16 -96 25 -28 25 -109 57
-138 54 -28 -3 -28 -2 -57 124 -11 49 -52 84 -138 119 -59 24 -99 48 -144 90
-61 55 -65 57 -135 63 -40 4 -102 18 -137 32 -87 32 -123 31 -178 -7 -25 -17
-48 -37 -51 -45 -6 -17 -181 -8 -201 10 -7 7 -15 43 -17 83 -2 39 -8 80 -14
91 -5 10 -35 38 -66 61 -58 44 -63 54 -40 85 24 31 19 83 -9 101 -36 24 -72
10 -98 -38 -29 -52 -60 -69 -99 -55 -65 23 -89 92 -70 203 24 142 71 194 159
174 35 -8 49 -6 82 11 22 11 59 20 84 20 37 0 48 -5 70 -31 14 -17 26 -36 26
-43 0 -7 14 -34 30 -60 24 -37 35 -47 53 -44 25 3 25 11 12 149 -8 75 -7 76
24 111 17 20 54 50 81 68 41 26 57 47 100 126 46 84 56 97 100 119 37 19 55
36 75 74 32 59 67 78 110 61 63 -24 141 -12 188 28 27 24 20 40 -27 61 -39 17
-46 25 -56 63 -7 24 -19 51 -28 61 -16 18 -15 20 3 33 11 9 31 13 45 10 14 -3
55 2 92 12 83 20 99 12 80 -41 -7 -18 -12 -43 -12 -54 0 -39 133 -109 152 -80
14 19 2 94 -18 124 -21 30 -44 97 -44 126 0 10 -21 45 -46 78 -37 46 -50 74
-63 131 -14 63 -20 74 -43 82 -22 8 -33 5 -61 -17 -32 -25 -36 -25 -50 -9 -8
9 -22 35 -31 57 -25 60 -53 85 -96 85 -22 0 -48 -8 -62 -20 -30 -23 -69 -109
-70 -153 -1 -23 -14 -47 -48 -85 -34 -38 -51 -69 -63 -111 -9 -32 -23 -61 -32
-64 -19 -8 -38 28 -32 61 9 47 -10 76 -77 115 -82 47 -111 86 -111 151 0 46 3
51 57 100 31 29 80 63 107 76 49 22 52 23 70 5 15 -13 29 -16 55 -11 44 8 61
28 47 55 -17 30 -14 38 24 64 49 33 78 73 70 97 -9 28 -92 28 -128 0 l-25 -20
-6 23 c-3 12 -6 54 -6 94 0 77 -14 123 -38 123 -8 0 -30 -17 -48 -37z"/>
<path d="M5423 8020 c-35 -14 -46 -45 -29 -79 32 -62 108 -97 171 -80 44 12
99 59 115 99 11 27 10 33 -6 51 -17 20 -26 21 -94 14 -41 -4 -79 -7 -85 -7 -5
-1 -19 1 -30 5 -11 3 -30 2 -42 -3z"/>
<path d="M5864 7676 c-10 -16 -14 -36 -11 -53 13 -68 14 -67 -23 -73 -93 -16
-134 -93 -82 -152 25 -29 67 -22 106 17 19 19 36 44 38 57 2 13 11 24 22 26
17 4 18 -1 13 -49 -4 -30 -10 -66 -13 -81 -5 -23 -2 -28 17 -33 37 -9 131 26
145 54 17 33 2 77 -38 115 -18 17 -46 60 -62 96 -16 36 -32 72 -36 80 -13 27
-57 24 -76 -4z"/>
<path d="M6596 7558 c-9 -12 -16 -28 -16 -35 0 -22 -50 -35 -135 -36 -87 -1
-116 9 -152 51 -18 22 -24 24 -37 13 -9 -8 -16 -22 -16 -33 0 -11 -14 -34 -32
-51 -17 -18 -44 -50 -60 -71 -34 -47 -44 -54 -130 -90 -38 -16 -68 -32 -68
-36 0 -5 16 -32 35 -61 40 -61 45 -110 16 -149 -18 -23 -22 -24 -53 -12 -19 6
-58 12 -86 12 -47 0 -54 -3 -62 -26 -6 -14 -10 -66 -10 -115 0 -82 2 -92 25
-114 51 -52 119 -25 240 94 80 79 209 171 240 171 6 0 22 -13 37 -30 24 -27
32 -30 87 -30 34 0 61 2 61 4 0 2 -13 18 -30 36 -39 42 -38 54 5 36 25 -11 43
-12 70 -5 19 6 35 14 35 18 0 5 39 50 87 102 101 110 193 222 193 236 0 9
-142 109 -187 132 -31 16 -40 14 -57 -11z"/>
<path d="M7309 6934 c-18 -20 -71 -67 -116 -106 l-83 -69 0 -68 c0 -83 -15
-101 -81 -101 -74 0 -76 -4 -81 -177 l-5 -152 -39 -67 c-45 -78 -75 -103 -130
-111 -48 -6 -92 21 -142 87 -65 86 -103 121 -125 118 -14 -2 -46 -35 -86 -88
-81 -108 -223 -276 -384 -455 -117 -129 -147 -175 -114 -175 24 0 113 28 174
54 79 33 122 34 152 2 12 -13 42 -29 66 -35 70 -18 79 -32 71 -120 -6 -72 -5
-77 34 -161 68 -148 76 -236 29 -320 -43 -75 -49 -164 -20 -274 12 -44 21
-106 21 -138 0 -34 9 -80 21 -114 16 -42 20 -69 16 -105 -6 -47 -6 -48 29 -59
81 -27 186 21 305 139 88 87 157 190 197 289 22 57 36 77 81 113 99 80 110
109 111 297 0 140 11 163 143 324 106 130 144 183 180 253 32 64 59 157 49
167 -4 4 -30 -4 -56 -17 -49 -25 -118 -33 -143 -17 -7 4 -14 19 -15 32 -3 21
10 30 112 83 179 91 160 63 160 237 0 83 -3 150 -8 150 -4 0 -17 -7 -29 -15
-19 -14 -23 -12 -61 29 -42 45 -92 133 -92 161 0 25 25 17 71 -21 23 -19 55
-42 71 -50 29 -15 29 -15 22 13 -3 15 -8 34 -10 42 -2 7 -1 19 4 25 11 15 3
128 -9 120 -5 -3 -9 3 -9 14 0 10 -19 43 -42 74 -111 143 -183 228 -193 228
-6 0 -27 -16 -46 -36z m-135 -547 c20 -24 68 -111 107 -193 71 -146 93 -224
70 -239 -19 -11 -58 21 -87 71 -42 72 -164 374 -164 407 0 26 30 7 74 -46z"/>
<path d="M5923 6736 c-36 -12 -115 -94 -138 -143 -8 -17 -15 -42 -15 -56 0
-18 -13 -37 -47 -64 -73 -60 -112 -102 -136 -147 -22 -41 -25 -83 -29 -351 -1
-59 32 -159 53 -163 30 -6 679 679 679 716 0 15 -54 59 -130 107 -41 26 -88
60 -105 75 -35 32 -86 42 -132 26z"/>
<path d="M6244 6295 c-98 -102 -104 -119 -58 -150 31 -20 47 -11 110 61 76 88
94 116 94 141 0 20 -25 43 -47 43 -4 0 -49 -43 -99 -95z"/>
<path d="M3561 6306 c-18 -22 -9 -31 60 -56 33 -13 67 -33 75 -45 15 -23 54
-45 81 -45 9 0 26 -8 37 -18 12 -10 45 -29 73 -42 44 -19 57 -21 78 -12 20 9
25 19 25 46 0 42 -17 53 -87 62 -31 4 -61 17 -86 36 -84 66 -228 108 -256 74z"/>
<path d="M4070 6130 c0 -5 14 -10 31 -10 17 0 28 4 24 10 -3 6 -17 10 -31 10
-13 0 -24 -4 -24 -10z"/>
<path d="M5947 5951 c-79 -80 -107 -115 -107 -133 0 -34 30 -71 51 -63 15 6
196 202 227 246 12 18 12 23 -4 40 -33 36 -55 24 -167 -90z"/>
<path d="M5648 5657 c-35 -29 -98 -81 -141 -116 -83 -67 -104 -99 -87 -132 18
-33 66 -24 129 23 147 111 221 188 221 229 0 21 -26 49 -46 49 -7 0 -42 -24
-76 -53z"/>
<path d="M5234 5320 c-33 -16 -116 -72 -186 -125 -131 -98 -151 -123 -128
-164 20 -38 58 -26 180 60 221 155 247 180 235 219 -12 39 -39 42 -101 10z"/>
<path d="M4575 4928 c-82 -38 -155 -74 -162 -80 -17 -14 -17 -59 0 -82 20 -27
62 -14 227 67 129 64 145 75 148 99 4 38 -14 68 -41 67 -12 -1 -89 -32 -172
-71z"/>
<path d="M4785 4779 c-219 -108 -502 -218 -675 -263 -84 -21 -85 -22 -83 -51
1 -17 6 -111 11 -210 7 -148 13 -190 30 -233 38 -93 72 -151 95 -167 35 -23
136 -55 152 -48 23 8 29 48 18 114 -8 52 -7 61 9 76 12 11 18 27 16 47 -3 30
-2 31 46 37 69 8 102 50 76 99 -9 16 -2 24 44 55 89 59 136 136 155 255 12 75
22 85 121 126 36 15 73 34 83 42 21 18 52 86 62 133 3 19 9 42 11 52 3 9 2 17
-3 16 -4 0 -80 -36 -168 -80z"/>
<path d="M4120 4744 c-58 -13 -143 -29 -190 -35 -114 -16 -145 -43 -100 -91
18 -19 26 -20 100 -15 120 9 294 54 330 84 47 39 36 85 -18 82 -9 -1 -64 -12
-122 -25z"/>
<path d="M7517 2984 c-4 -4 -7 -239 -7 -521 l0 -514 88 3 87 3 0 515 0 515
-80 3 c-45 1 -84 0 -88 -4z"/>
<path d="M7825 2968 c-3 -13 -4 -246 -3 -518 l3 -495 87 -3 c76 -2 87 -1 91
15 3 10 5 243 4 518 l-2 500 -87 3 c-84 3 -88 2 -93 -20z"/>
<path d="M859 2909 c-6 -3 -9 -44 -7 -90 l3 -84 128 0 127 0 0 -393 0 -393 93
3 92 3 3 387 2 387 133 3 132 3 3 87 3 87 -352 3 c-193 2 -355 0 -360 -3z"/>
<path d="M2240 2430 l0 -482 218 4 c171 4 227 8 263 22 109 40 169 130 169
255 0 95 -24 149 -85 191 -24 17 -48 30 -54 30 -6 0 -11 5 -11 10 0 6 4 10 9
10 19 0 73 54 92 93 17 33 20 54 17 118 -4 101 -35 150 -123 194 l-60 30 -217
3 -218 3 0 -481z m412 292 c18 -18 23 -34 23 -76 0 -90 -51 -126 -182 -126
l-63 0 0 116 0 116 100 -4 c88 -3 102 -6 122 -26z m-40 -352 c55 -16 88 -60
88 -121 0 -104 -46 -139 -184 -139 l-86 0 0 135 0 135 73 0 c39 0 89 -5 109
-10z"/>
<path d="M3748 2453 c-80 -252 -149 -468 -153 -481 -7 -23 -7 -23 91 -20 l99
3 34 113 35 112 155 -2 156 -3 34 -112 35 -113 93 0 c82 0 93 2 93 18 0 14
-145 453 -280 850 l-32 92 -107 0 -107 0 -146 -457z m272 213 c0 -7 23 -82 50
-168 28 -86 50 -159 50 -162 0 -3 -49 -6 -110 -6 -121 0 -122 0 -101 66 6 16
28 89 51 162 23 73 45 130 51 127 5 -4 9 -12 9 -19z"/>
<path d="M4350 2820 l0 -90 130 0 130 0 0 -390 0 -390 84 0 c47 0 88 4 91 10
3 5 6 180 5 389 l0 380 127 3 128 3 3 88 3 87 -351 0 -350 0 0 -90z"/>
<path d="M1693 2649 c-230 -89 -295 -437 -115 -617 68 -69 118 -87 237 -87 97
0 103 1 159 35 65 40 96 75 134 158 24 51 27 68 27 172 0 110 -1 118 -33 183
-74 149 -251 217 -409 156z m214 -183 c76 -83 72 -259 -8 -331 -103 -93 -239
0 -239 163 0 116 33 182 104 206 54 18 103 5 143 -38z"/>
<path d="M3140 2638 c-110 -57 -166 -154 -177 -309 -12 -166 52 -295 180 -361
57 -29 174 -36 249 -14 60 17 138 78 164 127 l15 29 -43 19 c-80 34 -86 34
-119 7 -38 -32 -67 -40 -130 -34 -68 7 -129 67 -129 128 0 20 5 20 209 20 235
0 221 -5 221 80 0 112 -44 230 -102 273 -63 47 -100 60 -188 64 -81 5 -88 4
-150 -29z m219 -134 c30 -25 58 -95 46 -115 -9 -13 -248 -4 -253 10 -7 20 37
96 65 113 43 27 105 23 142 -8z"/>
<path d="M5330 2652 c-19 -9 -49 -36 -67 -60 l-32 -42 -3 52 -3 53 -80 0 -80
0 0 -350 0 -350 87 -3 86 -3 4 225 c3 210 4 226 24 253 31 41 77 64 131 66 27
1 54 6 61 10 16 11 16 139 0 155 -18 18 -88 15 -128 -6z"/>
<path d="M5699 2657 c-88 -33 -145 -92 -164 -168 -8 -33 -3 -37 72 -45 60 -6
61 -5 84 26 48 65 118 78 169 33 23 -21 31 -38 33 -68 l2 -40 -85 -7 c-166
-12 -243 -47 -284 -130 -19 -37 -26 -67 -26 -107 1 -129 87 -211 222 -211 61
0 105 18 156 64 l40 36 11 -45 11 -45 71 0 71 0 -4 253 c-5 282 -14 328 -70
386 -52 53 -102 73 -193 77 -52 3 -93 0 -116 -9z m199 -443 c-6 -66 -34 -101
-94 -114 -69 -16 -124 14 -124 69 0 65 55 100 159 100 l63 1 -4 -56z"/>
<path d="M7009 2657 c-94 -35 -153 -98 -190 -201 -55 -157 -18 -356 82 -440
56 -48 110 -69 185 -74 92 -6 162 11 218 54 46 35 91 97 82 113 -3 5 -30 18
-60 31 l-54 22 -43 -31 c-79 -58 -202 -35 -235 44 -8 19 -14 44 -14 55 0 19 6
20 209 20 l209 0 7 38 c9 55 -12 176 -39 230 -49 95 -128 144 -245 149 -48 2
-90 -2 -112 -10z m165 -148 c30 -23 52 -62 57 -99 l4 -24 -127 -1 c-118 0
-128 1 -128 18 0 30 30 86 58 107 34 27 101 27 136 -1z"/>
<path d="M8319 2657 c-78 -29 -136 -86 -175 -171 -39 -86 -46 -225 -15 -327
19 -61 31 -81 80 -130 44 -44 70 -61 111 -73 102 -30 230 -16 300 34 32 23 90
95 90 112 0 9 -102 58 -121 58 -6 0 -26 -12 -46 -27 -48 -37 -133 -43 -181
-13 -30 19 -71 86 -72 117 0 10 52 13 213 15 l212 3 3 70 c6 139 -48 255 -145
312 -39 23 -60 28 -132 30 -55 2 -99 -2 -122 -10z m180 -153 c28 -24 60 -98
47 -111 -5 -5 -168 -8 -228 -4 -37 2 -11 81 38 120 39 31 104 28 143 -5z"/>
<path d="M9084 2651 c-18 -11 -45 -36 -60 -57 l-29 -38 -5 50 -5 49 -77 3 -78
3 0 -356 0 -356 83 3 82 3 5 215 c4 124 11 226 17 241 25 57 105 96 178 87 19
-3 20 3 20 82 l0 85 -50 3 c-36 2 -59 -3 -81 -17z"/>
<path d="M6126 2651 c-5 -7 184 -570 229 -684 7 -15 19 -17 98 -15 l90 3 15
40 c43 119 222 648 222 656 0 12 -167 12 -175 -1 -3 -5 -33 -101 -66 -212 -33
-112 -65 -218 -71 -237 l-11 -35 -18 50 c-9 27 -38 119 -64 204 -26 85 -52
173 -59 195 l-13 40 -85 3 c-48 1 -89 -2 -92 -7z"/>
</g>
</svg>
